<svg xmlns="http://www.w3.org/2000/svg" viewBox="0 0 480 480" role="img" aria-labelledby="title desc">
  <title id="title">Basti Prenzl</title>
  <desc id="desc">Stylized portrait of Basti Prenzl, a polished Berlin landlord and scene hypocrite.</desc>
  <defs><linearGradient id="bg" x1="0" y1="0" x2="1" y2="1"><stop offset="0" stop-color="#163548"/><stop offset="1" stop-color="#0b1218"/></linearGradient><linearGradient id="coat" x1="0" y1="0" x2="0" y2="1"><stop offset="0" stop-color="#8fd6ff"/><stop offset="1" stop-color="#3e7190"/></linearGradient></defs>
  <rect width="480" height="480" rx="72" fill="url(#bg)"/>
  <circle cx="240" cy="205" r="176" fill="#79c4f1" opacity=".09"/>
  <path d="M94 480c12-105 61-150 146-150s134 45 146 150" fill="url(#coat)"/>
  <path d="M153 480c5-69 31-116 87-145 56 29 82 76 87 145" fill="#26313a"/>
  <path d="M200 332h80l16 31-56 38-56-38z" fill="#e8bc9b"/>
  <ellipse cx="240" cy="216" rx="98" ry="124" fill="#e2b18d"/>
  <path d="M145 193c2-71 38-124 96-128 55-4 98 43 97 117-21-15-48-20-75-16-35 5-71 19-118 27z" fill="#aa7a42"/>
  <path d="M156 130c34-59 132-63 165-8-43-18-102-13-165 8z" fill="#c28b4d"/>
  <path d="M179 206c16-10 34-10 49 0M252 206c16-10 35-10 50 0" fill="none" stroke="#4e382a" stroke-width="7" stroke-linecap="round"/>
  <rect x="166" y="213" width="72" height="45" rx="13" fill="none" stroke="#20262d" stroke-width="7"/>
  <rect x="242" y="213" width="72" height="45" rx="13" fill="none" stroke="#20262d" stroke-width="7"/>
  <path d="M238 231h6" stroke="#20262d" stroke-width="7"/>
  <ellipse cx="205" cy="234" rx="8" ry="10" fill="#17202a"/>
  <ellipse cx="276" cy="234" rx="8" ry="10" fill="#17202a"/>
  <path d="M240 234c-4 20-5 33 0 43 6 4 13 4 19 0" fill="none" stroke="#b37558" stroke-width="6" stroke-linecap="round"/>
  <path d="M202 292c22 10 47 10 70 0" fill="none" stroke="#7b4d42" stroke-width="7" stroke-linecap="round"/>
  <path d="M188 335c13 24 31 37 52 37s39-13 52-37" fill="#d9b58d"/>
  <path d="M169 351c21 37 44 57 71 62 27-5 50-25 71-62" fill="none" stroke="#c6a06c" stroke-width="17" stroke-linecap="round"/>
  <circle cx="378" cy="92" r="40" fill="#0e151c" stroke="#79c4f1" stroke-width="5"/>
  <path d="M361 98c17-24 31-24 35-5 3 13-6 23-26 27" fill="none" stroke="#79c4f1" stroke-width="7" stroke-linecap="round"/>
</svg>
