<svg xmlns="http://www.w3.org/2000/svg" viewBox="0 0 480 480" role="img" aria-labelledby="title desc">
  <title id="title">Ricco</title>
  <desc id="desc">Stylized portrait of Ricco, a chaotic but likeable Berlin musician.</desc>
  <defs>
    <linearGradient id="bg" x1="0" y1="0" x2="1" y2="1">
      <stop offset="0" stop-color="#4b3210"/>
      <stop offset="1" stop-color="#16120b"/>
    </linearGradient>
    <linearGradient id="jacket" x1="0" y1="0" x2="0" y2="1">
      <stop offset="0" stop-color="#f4b942"/>
      <stop offset="1" stop-color="#b36f16"/>
    </linearGradient>
  </defs>
  <rect width="480" height="480" rx="72" fill="url(#bg)"/>
  <circle cx="240" cy="220" r="176" fill="#f4b942" opacity=".09"/>
  <path d="M96 480c10-103 59-151 144-151s134 48 144 151" fill="url(#jacket)"/>
  <path d="M130 480c7-66 28-112 67-137l43 47 43-47c39 25 60 71 67 137" fill="#20242a" opacity=".72"/>
  <path d="M184 338l56 52 56-52-20-21h-72z" fill="#f2c6a4"/>
  <ellipse cx="240" cy="220" rx="104" ry="126" fill="#d79568"/>
  <path d="M137 208c-2-66 20-116 65-139 36-19 85-9 111 17 27 27 36 71 28 118-17-12-35-19-54-20-24-2-44 5-62 19-25-18-55-17-88 5z" fill="#2b2623"/>
  <path d="M154 139c-21-12-26-37-10-52 14-13 38-6 44 13 5-24 29-39 50-31 15 6 23 21 20 36 18-21 51-17 64 7 9 17 4 38-12 49" fill="#2b2623"/>
  <path d="M153 213c-11 4-19 16-19 31 0 18 12 32 27 32" fill="none" stroke="#b46d49" stroke-width="9" stroke-linecap="round"/>
  <path d="M327 213c11 4 19 16 19 31 0 18-12 32-27 32" fill="none" stroke="#b46d49" stroke-width="9" stroke-linecap="round"/>
  <path d="M180 210c17-12 38-12 54-1" fill="none" stroke="#3a2b25" stroke-width="9" stroke-linecap="round"/>
  <path d="M246 209c18-11 40-10 55 3" fill="none" stroke="#3a2b25" stroke-width="9" stroke-linecap="round"/>
  <ellipse cx="206" cy="229" rx="10" ry="12" fill="#15171a"/>
  <ellipse cx="276" cy="229" rx="10" ry="12" fill="#15171a"/>
  <circle cx="209" cy="225" r="3" fill="#fff"/>
  <circle cx="279" cy="225" r="3" fill="#fff"/>
  <path d="M240 226c-5 18-8 34-6 44 4 6 12 8 19 4" fill="none" stroke="#a55f43" stroke-width="6" stroke-linecap="round"/>
  <path d="M202 291c24 19 54 20 78 0" fill="none" stroke="#713b35" stroke-width="8" stroke-linecap="round"/>
  <path d="M198 310c27 12 58 12 84 0" fill="none" stroke="#c47a59" stroke-width="5" stroke-linecap="round" opacity=".75"/>
  <path d="M124 212c-18 1-32 16-32 35s14 34 32 35" fill="none" stroke="#101216" stroke-width="14"/>
  <path d="M356 212c18 1 32 16 32 35s-14 34-32 35" fill="none" stroke="#101216" stroke-width="14"/>
  <path d="M126 214c14-34 43-53 76-57" fill="none" stroke="#101216" stroke-width="12" stroke-linecap="round"/>
  <path d="M354 214c-14-34-43-53-76-57" fill="none" stroke="#101216" stroke-width="12" stroke-linecap="round"/>
  <circle cx="382" cy="90" r="42" fill="#0d1015" stroke="#f4b942" stroke-width="5"/>
  <path d="M365 91h34M382 74v34" stroke="#f4b942" stroke-width="7" stroke-linecap="round"/>
</svg>
